<svg width="26" height="26" viewBox="0 0 26 26" fill="none" xmlns="http://www.w3.org/2000/svg">
<path fill-rule="evenodd" clip-rule="evenodd" d="M24.049 21.5363C23.642 20.8678 23.6816 20.0283 24.0633 19.345C25.0836 17.5185 25.665 15.4136 25.665 13.1729C25.665 6.17275 19.9903 0.498047 12.9902 0.498047C5.99013 0.498047 0.31543 6.17275 0.31543 13.1729C0.31543 20.173 5.99013 25.8477 12.9902 25.8477C15.075 25.8477 17.0422 25.3443 18.777 24.4526C19.3706 24.1474 20.0499 24.0266 20.6985 24.1842L21.9001 24.4763C23.6063 24.8911 24.9622 23.036 24.049 21.5363Z" fill="#7FA3FF"/>
<path d="M11.513 15.2524V15.1047C11.5167 14.4191 11.5811 13.8736 11.7061 13.4683C11.8349 13.063 12.0167 12.7372 12.2516 12.491C12.4864 12.241 12.7724 12.0119 13.1096 11.8035C13.3406 11.6596 13.5471 11.5024 13.7289 11.3319C13.9145 11.1577 14.0603 10.9645 14.1664 10.7524C14.2724 10.5365 14.3255 10.296 14.3255 10.0308C14.3255 9.73156 14.2554 9.47209 14.1152 9.2524C13.9751 9.0327 13.7857 8.86225 13.5471 8.74103C13.3122 8.61982 13.0489 8.55921 12.7573 8.55921C12.4883 8.55921 12.2327 8.61793 11.9902 8.73535C11.7516 8.84899 11.5527 9.02323 11.3936 9.25808C11.2383 9.48914 11.1512 9.7827 11.1323 10.1388H9.10955C9.12849 9.41906 9.30273 8.81679 9.63228 8.33194C9.96561 7.84709 10.405 7.48346 10.9505 7.24103C11.4997 6.99861 12.1058 6.8774 12.7686 6.8774C13.4921 6.8774 14.1285 7.00429 14.6777 7.25808C15.2308 7.51187 15.6607 7.87361 15.9675 8.34331C16.2781 8.80921 16.4334 9.36225 16.4334 10.0024C16.4334 10.4342 16.3633 10.8206 16.2232 11.1615C16.0868 11.5024 15.8917 11.8054 15.638 12.0706C15.3842 12.3357 15.083 12.5725 14.7346 12.7808C14.4277 12.9702 14.1758 13.1672 13.9789 13.3717C13.7857 13.5763 13.6417 13.8168 13.5471 14.0933C13.4561 14.366 13.4088 14.7032 13.405 15.1047V15.2524H11.513ZM12.5016 18.7979C12.1607 18.7979 11.8671 18.6766 11.6209 18.4342C11.3747 18.1918 11.2516 17.8963 11.2516 17.5479C11.2516 17.2069 11.3747 16.9153 11.6209 16.6729C11.8671 16.4304 12.1607 16.3092 12.5016 16.3092C12.8387 16.3092 13.1304 16.4304 13.3766 16.6729C13.6266 16.9153 13.7516 17.2069 13.7516 17.5479C13.7516 17.7789 13.6929 17.9891 13.5755 18.1785C13.4618 18.3679 13.3103 18.5194 13.1209 18.6331C12.9353 18.7429 12.7289 18.7979 12.5016 18.7979Z" fill="white"/>
</svg>
