<svg width="22" height="20" viewBox="0 0 22 20" fill="none" xmlns="http://www.w3.org/2000/svg">
<path d="M5.39471 14.9907C2.56721 12.1939 2.61721 7.81012 5.55471 5.08807C6.70596 4.01662 8.20291 3.31632 9.82221 3.09168L9.73596 0.703125C7.46274 0.955641 5.34933 1.90856 3.73971 3.40677C-0.196542 7.05228 -0.244043 12.9391 3.58596 16.6674L1.40971 18.6822L8.29721 19.0284L8.27846 12.3193L5.39471 14.9907ZM13.7035 1.23788L13.7222 7.94697L16.606 5.27667C19.4335 8.07577 19.3835 12.4596 16.446 15.1793C15.2949 16.2511 13.7979 16.9514 12.1785 17.1757L12.2647 19.5631C14.5379 19.3103 16.6515 18.3579 18.2622 16.8606C22.1972 13.2128 22.2447 7.32597 18.4147 3.59997L20.591 1.58288L13.7035 1.23788Z" fill="white"/>
</svg>
