<svg width="111" height="31" viewBox="0 0 111 31" fill="none" xmlns="http://www.w3.org/2000/svg">
<g clip-path="url(#clip0_973_1764)">
<path d="M43.0339 10.2106C42.459 9.72025 41.8503 9.29755 41.2078 8.95938C39.7875 8.21542 38.1897 7.83499 36.4566 7.83499C33.4553 7.83499 30.8599 8.92557 28.7295 11.0814C26.6075 13.2372 25.5254 15.8579 25.5254 18.8845C25.5254 21.9111 26.5906 24.6249 28.6957 26.7807C30.8092 28.9449 33.3962 30.0439 36.3805 30.0439C38.0628 30.0439 39.6353 29.6889 41.0556 28.9872C41.7404 28.649 42.4083 28.2263 43.0339 27.7191V29.5536H47.5399V0.268555L43.0339 2.40745V10.2021V10.2106ZM42.3491 22.4522C41.7996 23.4413 40.988 24.236 39.9566 24.8108C38.9167 25.4026 37.7923 25.6985 36.6341 25.6985C35.4759 25.6985 34.4022 25.4026 33.4046 24.8108C32.407 24.2191 31.5954 23.3821 30.9952 22.3253C30.395 21.2601 30.0906 20.1273 30.0906 18.9691C30.0906 17.8108 30.395 16.6695 30.9867 15.6128C31.5785 14.5645 32.3817 13.736 33.3708 13.1611C34.3684 12.5862 35.4674 12.2903 36.6426 12.2903C38.5025 12.2903 40.0242 12.9159 41.2923 14.2094C42.5689 15.5113 43.186 17.0838 43.186 19.0367C43.186 20.3048 42.8986 21.4546 42.3406 22.4522H42.3491Z" fill="black"/>
<path d="M68.3542 10.2106C67.7793 9.72025 67.1706 9.29755 66.5281 8.95938C65.1078 8.21542 63.51 7.83499 61.7769 7.83499C58.7757 7.83499 56.1802 8.92557 54.0498 11.0814C51.9278 13.2372 50.8457 15.8579 50.8457 18.8845C50.8457 21.9111 51.9109 24.6249 54.016 26.7807C56.1295 28.9449 58.7165 30.0439 61.7008 30.0439C63.3832 30.0439 64.9556 29.6889 66.3759 28.9872C67.0607 28.649 67.7286 28.2263 68.3542 27.7191V29.5536H72.8602V0.268555L68.3542 2.40745V10.2021V10.2106ZM67.6694 22.4522C67.1199 23.4413 66.3083 24.236 65.2769 24.8108C64.237 25.4026 63.1126 25.6985 61.9544 25.6985C60.7962 25.6985 59.7225 25.4026 58.7249 24.8108C57.7273 24.2191 56.9158 23.3821 56.3155 22.3253C55.7153 21.2601 55.4109 20.1273 55.4109 18.9691C55.4109 17.8108 55.7153 16.6695 56.3071 15.6128C56.8989 14.5645 57.702 13.736 58.6911 13.1611C59.6887 12.5862 60.7877 12.2903 61.9629 12.2903C63.8228 12.2903 65.3445 12.9159 66.6126 14.2094C67.8892 15.5113 68.5063 17.0838 68.5063 19.0367C68.5063 20.3048 68.2189 21.4546 67.6609 22.4522H67.6694Z" fill="black"/>
<path d="M77.3496 29.5535H81.8979V7.7334L77.3496 9.8892V29.5535Z" fill="black"/>
<path d="M79.6144 0.446289C78.7775 0.446289 78.0589 0.750637 77.4586 1.35088C76.8584 1.95112 76.5625 2.67817 76.5625 3.52359C76.5625 4.369 76.8668 5.0876 77.4586 5.67939C78.0589 6.27963 78.7775 6.58398 79.6144 6.58398C80.4514 6.58398 81.1869 6.27963 81.7871 5.67939C82.3874 5.07914 82.6833 4.35209 82.6833 3.52359C82.6833 2.69508 82.3789 1.94267 81.7871 1.35088C81.1869 0.750637 80.4598 0.446289 79.6144 0.446289Z" fill="black"/>
<path d="M12.092 5.17188L0.585938 29.5282H6.14029L13.2502 14.5052L15.5413 19.3663L16.7248 21.9787L20.3347 29.5282H25.7961L14.4338 5.17188H12.092Z" fill="black"/>
<path d="M92.3886 13.2448V13.2363H85.6338V17.903H90.6978H95.5758H95.6857V13.2448H92.3886Z" fill="black"/>
<path d="M100.352 13.2367V1.58691H95.6855V13.2451H100.352L95.6855 17.9034V29.5531H100.352V17.9034H110.413V13.2367H100.352Z" fill="black"/>
</g>
<defs>
<clipPath id="clip0_973_1764">
<rect width="109.827" height="29.7754" fill="white" transform="translate(0.585938 0.268555)"/>
</clipPath>
</defs>
</svg>
