<svg width="111" height="31" viewBox="0 0 111 31" fill="none" xmlns="http://www.w3.org/2000/svg">
<g clip-path="url(#clip0_1060_1612)">
<path d="M43.0348 10.5846C42.46 10.0943 41.8513 9.67157 41.2087 9.33341C39.7885 8.58945 38.1906 8.20901 36.4575 8.20901C33.4563 8.20901 30.8609 9.29959 28.7305 11.4554C26.6085 13.6112 25.5264 16.232 25.5264 19.2585C25.5264 22.2851 26.5916 24.9989 28.6967 27.1547C30.8102 29.3189 33.3971 30.418 36.3814 30.418C38.0638 30.418 39.6363 30.0629 41.0566 29.3612C41.7414 29.023 42.4092 28.6003 43.0348 28.0931V29.9276H47.5409V0.642578L43.0348 2.78147V10.5762V10.5846ZM42.3501 22.8262C41.8005 23.8153 40.9889 24.61 39.9575 25.1849C38.9177 25.7767 37.7933 26.0726 36.6351 26.0726C35.4769 26.0726 34.4032 25.7767 33.4056 25.1849C32.408 24.5931 31.5964 23.7561 30.9962 22.6994C30.3959 21.6341 30.0916 20.5013 30.0916 19.3431C30.0916 18.1849 30.3959 17.0436 30.9877 15.9868C31.5795 14.9385 32.3827 14.11 33.3718 13.5351C34.3694 12.9602 35.4684 12.6643 36.6435 12.6643C38.5034 12.6643 40.0252 13.2899 41.2933 14.5834C42.5699 15.8853 43.187 17.4578 43.187 19.4107C43.187 20.6788 42.8996 21.8286 42.3416 22.8262H42.3501Z" fill="white"/>
<path d="M68.3552 10.5846C67.7803 10.0943 67.1716 9.67157 66.5291 9.33341C65.1088 8.58945 63.5109 8.20901 61.7778 8.20901C58.7766 8.20901 56.1812 9.29959 54.0508 11.4554C51.9288 13.6112 50.8467 16.232 50.8467 19.2585C50.8467 22.2851 51.9119 24.9989 54.017 27.1547C56.1305 29.3189 58.7175 30.418 61.7018 30.418C63.3841 30.418 64.9566 30.0629 66.3769 29.3612C67.0617 29.023 67.7295 28.6003 68.3552 28.0931V29.9276H72.8612V0.642578L68.3552 2.78147V10.5762V10.5846ZM67.6704 22.8262C67.1208 23.8153 66.3092 24.61 65.2778 25.1849C64.238 25.7767 63.1136 26.0726 61.9554 26.0726C60.7972 26.0726 59.7235 25.7767 58.7259 25.1849C57.7283 24.5931 56.9167 23.7561 56.3165 22.6994C55.7162 21.6341 55.4119 20.5013 55.4119 19.3431C55.4119 18.1849 55.7163 17.0436 56.308 15.9868C56.8998 14.9385 57.703 14.11 58.6921 13.5351C59.6897 12.9602 60.7887 12.6643 61.9638 12.6643C63.8237 12.6643 65.3455 13.2899 66.6136 14.5834C67.8902 15.8853 68.5073 17.4578 68.5073 19.4107C68.5073 20.6788 68.2199 21.8286 67.6619 22.8262H67.6704Z" fill="white"/>
<path d="M77.3506 29.9275H81.8989V8.10742L77.3506 10.2632V29.9275Z" fill="white"/>
<path d="M79.6154 0.820312C78.7785 0.820312 78.0599 1.12466 77.4596 1.7249C76.8594 2.32514 76.5635 3.0522 76.5635 3.89761C76.5635 4.74302 76.8678 5.46162 77.4596 6.05341C78.0599 6.65365 78.7785 6.958 79.6154 6.958C80.4524 6.958 81.1879 6.65365 81.7881 6.05341C82.3884 5.45317 82.6843 4.72611 82.6843 3.89761C82.6843 3.06911 82.3799 2.31669 81.7881 1.7249C81.1879 1.12466 80.4608 0.820312 79.6154 0.820312Z" fill="white"/>
<path d="M12.093 5.5459L0.586914 29.9022H6.14127L13.2512 14.8792L15.5422 19.7404L16.7258 22.3527L20.3357 29.9022H25.7971L14.4348 5.5459H12.093Z" fill="white"/>
<path d="M92.3896 13.6188V13.6104H85.6348V18.277H90.6988H95.5768H95.6867V13.6188H92.3896Z" fill="white"/>
<path d="M100.353 13.6107V1.96094H95.6865V13.6192H100.353L95.6865 18.2774V29.9271H100.353V18.2774H110.414V13.6107H100.353Z" fill="white"/>
</g>
<defs>
<clipPath id="clip0_1060_1612">
<rect width="109.827" height="29.7754" fill="white" transform="translate(0.586914 0.642578)"/>
</clipPath>
</defs>
</svg>
