<svg width="75" height="21" viewBox="0 0 75 21" fill="none" xmlns="http://www.w3.org/2000/svg">
<g clip-path="url(#clip0_1060_1488)">
<path d="M29.3339 6.76367C28.9487 6.43509 28.5408 6.15184 28.1102 5.92524C27.1585 5.42671 26.0878 5.17179 24.9265 5.17179C22.9154 5.17179 21.1762 5.90258 19.7486 7.34717C18.3267 8.79176 17.6016 10.5479 17.6016 12.576C17.6016 14.6041 18.3154 16.4226 19.726 17.8672C21.1422 19.3174 22.8757 20.0539 24.8755 20.0539C26.0028 20.0539 27.0565 19.816 28.0083 19.3458C28.4671 19.1192 28.9147 18.8359 29.3339 18.496V19.7253H32.3534V0.101562L29.3339 1.53482V6.758V6.76367ZM28.875 14.9667C28.5068 15.6295 27.9629 16.162 27.2718 16.5472C26.575 16.9438 25.8216 17.142 25.0454 17.142C24.2693 17.142 23.5499 16.9438 22.8814 16.5472C22.2129 16.1507 21.6691 15.5898 21.2669 14.8817C20.8646 14.1679 20.6607 13.4088 20.6607 12.6327C20.6607 11.8566 20.8646 11.0918 21.2612 10.3836C21.6577 9.68117 22.1959 9.126 22.8587 8.74077C23.5272 8.35555 24.2637 8.15727 25.0511 8.15727C26.2974 8.15727 27.3171 8.57649 28.1669 9.44324C29.0223 10.3157 29.4359 11.3694 29.4359 12.678C29.4359 13.5277 29.2432 14.2982 28.8694 14.9667H28.875Z" fill="white"/>
<path d="M46.3007 6.76367C45.9155 6.43509 45.5076 6.15184 45.077 5.92524C44.1253 5.42671 43.0546 5.17179 41.8933 5.17179C39.8822 5.17179 38.143 5.90258 36.7154 7.34717C35.2935 8.79176 34.5684 10.5479 34.5684 12.576C34.5684 14.6041 35.2822 16.4226 36.6928 17.8672C38.109 19.3174 39.8425 20.0539 41.8423 20.0539C42.9696 20.0539 44.0233 19.816 44.9751 19.3458C45.4339 19.1192 45.8815 18.8359 46.3007 18.496V19.7253H49.3202V0.101562L46.3007 1.53482V6.758V6.76367ZM45.8418 14.9667C45.4736 15.6295 44.9297 16.162 44.2386 16.5472C43.5418 16.9438 42.7884 17.142 42.0122 17.142C41.2361 17.142 40.5167 16.9438 39.8482 16.5472C39.1797 16.1507 38.6359 15.5898 38.2336 14.8817C37.8314 14.1679 37.6275 13.4088 37.6275 12.6327C37.6275 11.8566 37.8314 11.0918 38.228 10.3836C38.6245 9.68117 39.1627 9.126 39.8255 8.74077C40.494 8.35555 41.2305 8.15727 42.0179 8.15727C43.2642 8.15727 44.2839 8.57649 45.1337 9.44324C45.9891 10.3157 46.4027 11.3694 46.4027 12.678C46.4027 13.5277 46.21 14.2982 45.8362 14.9667H45.8418Z" fill="white"/>
<path d="M52.3281 19.7255H55.3759V5.104L52.3281 6.54859V19.7255Z" fill="white"/>
<path d="M53.8459 0.220703C53.285 0.220703 52.8035 0.424645 52.4013 0.826864C51.9991 1.22908 51.8008 1.71628 51.8008 2.28278C51.8008 2.84929 52.0047 3.33082 52.4013 3.72737C52.8035 4.12959 53.285 4.33353 53.8459 4.33353C54.4067 4.33353 54.8996 4.12959 55.3018 3.72737C55.704 3.32515 55.9023 2.83796 55.9023 2.28278C55.9023 1.72761 55.6983 1.22342 55.3018 0.826864C54.8996 0.424645 54.4124 0.220703 53.8459 0.220703Z" fill="white"/>
<path d="M8.59979 3.38721L0.889648 19.7082H4.61159L9.3759 9.64143L10.9111 12.8988L11.7042 14.6493L14.1232 19.7082H17.7828L10.169 3.38721H8.59979Z" fill="white"/>
<path d="M62.4072 8.79766V8.79199H57.8809V11.9191H61.2742H64.543H64.6166V8.79766H62.4072Z" fill="white"/>
<path d="M67.7433 8.7918V0.985352H64.6162V8.79746H67.7433L64.6162 11.9189V19.7254H67.7433V11.9189H74.4847V8.7918H67.7433Z" fill="white"/>
</g>
<defs>
<clipPath id="clip0_1060_1488">
<rect width="73.5947" height="19.9523" fill="white" transform="translate(0.889648 0.101562)"/>
</clipPath>
</defs>
</svg>
